<svg width="34" height="22" viewBox="0 0 34 22" fill="none" xmlns="http://www.w3.org/2000/svg">
<path fill-rule="evenodd" clip-rule="evenodd" d="M30.8621 0H2.5C1.11926 0 0 1.11963 0 2.5V19.3604C0 20.7407 1.11926 21.8604 2.5 21.8604H30.8621C32.2427 21.8604 33.3621 20.7407 33.3621 19.3604V2.49805C33.3608 1.11816 32.2418 0 30.8619 0H30.8621Z" fill="#41479B"/>
<path fill-rule="evenodd" clip-rule="evenodd" d="M33.326 2.08496C33.1234 0.881836 32.082 0.000976562 30.8621 0H30.212L19.556 6.98096V0H13.8V6.98096L3.14795 0H2.5C1.2793 0.000488281 0.237183 0.882324 0.0350342 2.08594L9.14197 8.05322H0V13.8052H9.14197L0.0350342 19.771C0.237183 20.9751 1.27917 21.8569 2.5 21.8569H3.15002L13.8 14.875V21.856H19.552V14.875L30.208 21.856H30.858C32.0781 21.8555 33.1195 20.9741 33.322 19.771L24.215 13.8042H33.36V8.05225H24.218L33.326 2.08496Z" fill="#F5F5F5"/>
<path fill-rule="evenodd" clip-rule="evenodd" d="M18.406 0H14.955V9.2002H0V12.6509H14.955V21.8511H18.406V12.6509H33.36V9.20312H18.406V0Z" fill="#FF4B55"/>
<path fill-rule="evenodd" clip-rule="evenodd" d="M1.61499 21.6948L13.777 13.8042H11.6599L0.600952 20.9819C0.873779 21.3008 1.22241 21.5464 1.61499 21.6948Z" fill="#FF4B55"/>
<path fill-rule="evenodd" clip-rule="evenodd" d="M22.569 13.8042H20.4559L32.231 21.4473C32.561 21.23 32.8351 20.938 33.031 20.5952L22.569 13.8042Z" fill="#FF4B55"/>
<path fill-rule="evenodd" clip-rule="evenodd" d="M0.263916 1.38086L10.541 8.05078H12.6539L1.00793 0.492676C0.694092 0.726562 0.439209 1.03076 0.263916 1.38086Z" fill="#FF4B55"/>
<path fill-rule="evenodd" clip-rule="evenodd" d="M21.6689 8.05176L32.748 0.859863C32.472 0.541504 32.1201 0.297852 31.725 0.151855L19.5559 8.05176H21.6689Z" fill="#FF4B55"/>
</svg>
